<svg width="710" height="187" viewBox="0 0 710 187" fill="none" xmlns="http://www.w3.org/2000/svg">
<path d="M187.629 13.8133C184.251 18.4472 176.69 28.1073 173.474 29.676L246.471 30.3879L263.626 14.5544L187.629 13.8133Z" fill="#D93037"/>
<path d="M30.2034 159.285L0.204788 158.992L98.0681 70.9426L110.392 89.0637L30.2034 159.285Z" fill="url(#paint0_linear_6_2)"/>
<path d="M52.2023 159.5L27.2035 159.256L112.931 85.0882L159.697 160.548L110.7 160.07L85.925 136.827L52.2023 159.5Z" fill="url(#paint1_linear_6_2)"/>
<g filter="url(#filter0_d_6_2)">
<path d="M190.879 13.845L177.474 29.715L155.475 29.5005L169.13 13.6329L190.879 13.845Z" fill="#C11920" fill-opacity="0.9" shape-rendering="crispEdges"/>
</g>
<path d="M166.63 13.6085L82.442 83.7909L34.6367 12.3213L83.1344 12.7943L108.919 35.0468L141.632 13.3647L166.63 13.6085Z" fill="#D93037"/>
<path d="M96.2512 103.426L81.9469 83.286L165.63 13.5988L195.129 13.8864L96.2512 103.426Z" fill="url(#paint2_linear_6_2)"/>
<path d="M192.618 129.827C188.971 129.792 185.809 129.089 183.134 127.719C180.524 126.349 178.494 124.409 177.047 121.899C175.663 119.39 174.988 116.407 175.022 112.951C175.033 111.863 175.141 110.584 175.348 109.114C175.554 107.644 175.792 106.206 176.062 104.801L186 60.2556L202.032 60.412L192.09 105.245C191.825 106.203 191.624 107.129 191.487 108.023C191.415 108.855 191.375 109.622 191.368 110.326C191.351 112.118 191.626 113.433 192.194 114.271C192.826 115.109 193.75 115.534 194.966 115.546C196.246 115.558 197.337 115.249 198.239 114.618C199.142 113.922 199.952 112.842 200.671 111.377C201.39 109.848 202.018 107.806 202.554 105.251L212.591 60.5149L228.622 60.6713L218.081 107.899C217.011 112.689 215.403 116.737 213.259 120.044C211.179 123.288 208.435 125.758 205.026 127.452C201.682 129.084 197.546 129.876 192.618 129.827ZM223.437 129.168L235.282 76.193L247.57 76.3128L247.318 82.4546L247.606 82.4574C248.644 80.9955 249.744 79.7582 250.906 78.7455C252.133 77.6694 253.421 76.8499 254.77 76.287C256.184 75.7248 257.626 75.4508 259.098 75.4652C261.018 75.4839 262.838 75.8857 264.559 76.6705C266.344 77.3919 267.771 78.6859 268.841 80.5524C269.976 82.3556 270.527 84.8571 270.496 88.0569C270.487 89.0169 270.412 90.1362 270.271 91.4149C270.132 92.6296 269.893 94.0673 269.557 95.7281L262.027 129.544L246.668 129.395L253.196 99.8888C253.53 98.484 253.799 97.1425 254.003 95.8645C254.208 94.5224 254.315 93.4354 254.323 92.6034C254.334 91.5155 254.15 90.6817 253.771 90.1019C253.457 89.5228 252.852 89.2289 251.956 89.2202C250.868 89.2096 249.87 89.7759 248.963 90.9191C248.12 92.0629 247.369 93.6237 246.709 95.6013C246.051 97.515 245.454 99.6533 244.919 102.016L238.892 129.319L223.437 129.168ZM271.647 129.638L283.492 76.6631L298.755 76.812L287.006 129.788L271.647 129.638ZM292.662 71.5683C290.294 71.5452 288.507 71.0478 287.301 70.0759C286.158 69.1048 285.596 67.6272 285.616 65.6433C285.631 64.0434 285.967 62.4786 286.621 60.9489C287.341 59.3558 288.41 58.0222 289.829 56.948C291.311 55.8744 293.204 55.3488 295.508 55.3713C297.748 55.3931 299.471 55.89 300.678 56.8618C301.949 57.8342 302.574 59.3124 302.555 61.2963C302.526 64.2402 301.606 66.6953 299.795 68.6617C297.984 70.6282 295.606 71.597 292.662 71.5683ZM312.911 131.001C308.751 130.96 305.851 129.748 304.21 127.364C302.569 124.979 301.766 122.027 301.8 118.508C301.812 117.356 301.888 116.108 302.029 114.766C302.234 113.424 302.537 111.859 302.939 110.07L307.458 89.6655L302.658 89.6186L304.368 81.6669L311.706 77.4183L317.19 66.3352L328.037 66.441L325.63 77.0741L334.653 77.1621L331.841 89.9032L322.817 89.8152L317.797 112.423C317.728 112.871 317.628 113.318 317.495 113.764C317.427 114.212 317.391 114.596 317.388 114.915C317.379 115.875 317.564 116.581 317.944 117.033C318.324 117.421 318.994 117.619 319.954 117.629C320.466 117.634 321.267 117.545 322.357 117.364C323.447 117.119 324.603 116.746 325.824 116.246L325.704 128.533C323.903 129.476 321.752 130.127 319.252 130.486C316.817 130.847 314.703 131.018 312.911 131.001ZM350.81 131.37C347.226 131.335 344.129 130.601 341.519 129.167C338.909 127.67 336.913 125.602 335.531 122.965C334.149 120.263 333.477 117.056 333.513 113.345C333.553 109.185 334.075 104.966 335.076 100.687C336.143 96.3455 337.782 92.3613 339.993 88.7347C342.205 85.0441 345.018 82.0954 348.432 79.8886C351.846 77.6177 355.953 76.5057 360.753 76.5525C365.233 76.5962 368.868 77.8798 371.66 80.4031C374.451 82.9264 375.827 86.268 375.786 90.4278C375.755 93.6277 375.088 96.4053 373.785 98.7607C372.546 101.117 370.767 103.051 368.448 104.565C366.13 106.014 363.399 107.108 360.256 107.845C357.113 108.519 353.654 108.837 349.878 108.8L348.918 108.791C348.849 109.302 348.78 109.845 348.71 110.421C348.641 110.932 348.604 111.412 348.6 111.86C348.574 114.484 349.036 116.344 349.986 117.441C351 118.475 352.498 119.002 354.482 119.021C356.786 119.044 358.869 118.808 360.73 118.314C362.655 117.757 364.937 116.755 367.575 115.309L367.464 126.732C364.63 128.561 361.834 129.814 359.075 130.491C356.381 131.105 353.626 131.398 350.81 131.37ZM351.521 97.8715C354.272 97.8984 356.355 97.6627 357.768 97.1644C359.245 96.6028 360.276 95.8768 360.861 94.9865C361.446 94.0321 361.745 92.979 361.756 91.8271C361.765 90.8671 361.453 90.096 360.818 89.5138C360.185 88.8676 359.388 88.5398 358.428 88.5304C357.532 88.5217 356.665 88.8333 355.827 89.4651C354.988 90.097 354.179 91.1131 353.397 92.5136C352.68 93.8506 351.99 95.636 351.329 97.8697L351.521 97.8715ZM389.298 131.746C387.058 131.724 385.112 131.065 383.461 129.769C381.81 128.472 380.547 126.636 379.675 124.259C378.802 121.819 378.382 118.966 378.414 115.703C378.44 113.079 378.725 110.073 379.27 106.687C379.815 103.3 380.648 99.8837 381.77 96.4384C382.892 92.9292 384.268 89.7105 385.896 86.7822C387.526 83.79 389.405 81.3762 391.535 79.5409C393.729 77.7062 396.17 76.8019 398.858 76.8282C400.33 76.8425 401.736 77.0482 403.076 77.4453C404.416 77.8424 405.626 78.4942 406.705 79.4008C407.784 80.3074 408.637 81.4997 409.263 82.9779L409.55 82.9807C409.69 81.766 409.83 80.6153 409.968 79.5286C410.107 78.4419 410.244 77.4832 410.38 76.6525C410.581 75.7584 410.748 75.056 410.881 74.5453L414.594 58.0687L429.953 58.2185L413.69 131.023L401.211 130.902L400.88 125.426L400.496 125.422C399.267 126.755 398.104 127.895 397.007 128.845C395.909 129.794 394.75 130.519 393.529 131.019C392.372 131.52 390.962 131.762 389.298 131.746ZM396.336 118.854C397.296 118.863 398.164 118.487 398.939 117.727C399.779 116.903 400.526 115.822 401.179 114.485C401.897 113.084 402.52 111.554 403.048 109.895C403.641 108.172 404.105 106.449 404.442 104.724C404.844 102.936 405.148 101.243 405.356 99.6446C405.563 98.0466 405.673 96.6396 405.685 95.4236C405.702 93.6317 405.459 92.3173 404.955 91.4803C404.516 90.644 403.816 90.2211 402.856 90.2118C401.768 90.2012 400.77 90.8315 399.861 92.1027C398.953 93.3739 398.136 95.03 397.413 97.071C396.753 99.0487 396.189 101.123 395.72 103.295C395.251 105.466 394.879 107.479 394.605 109.332C394.395 111.186 394.285 112.561 394.277 113.457C394.259 115.249 394.438 116.595 394.813 117.495C395.188 118.394 395.696 118.847 396.336 118.854ZM424.183 131.126L439.347 62.7263L470.449 63.0296L467.435 76.8249L452.363 76.6779L449.555 89.0351L463.57 89.1718L460.459 102.966L446.54 102.83L443.231 117.295L458.398 117.443L455.285 131.429L424.183 131.126ZM464.592 131.52L476.437 78.5448L488.724 78.6646L488.472 84.8064L488.76 84.8092C489.799 83.3473 490.899 82.11 492.061 81.0973C493.287 80.0212 494.575 79.2017 495.925 78.6388C497.338 78.0766 498.781 77.8026 500.253 77.817C502.173 77.8357 503.993 78.2375 505.714 79.0223C507.499 79.7437 508.926 81.0377 509.996 82.9042C511.13 84.7074 511.682 87.2089 511.651 90.4087C511.642 91.3687 511.567 92.488 511.426 93.7667C511.286 94.9814 511.048 96.4191 510.712 98.0799L503.182 131.896L487.823 131.746L494.351 102.241C494.684 100.836 494.954 99.4943 495.158 98.2163C495.363 96.8742 495.47 95.7872 495.478 94.9552C495.488 93.8673 495.305 93.0335 494.926 92.4537C494.612 91.8746 494.007 91.5807 493.111 91.572C492.023 91.5614 491.025 92.1277 490.118 93.2709C489.275 94.4147 488.524 95.9755 487.864 97.9531C487.206 99.8668 486.609 102.005 486.074 104.368L480.047 131.671L464.592 131.52ZM533.047 133.147C529.464 133.112 526.367 132.378 523.756 130.945C521.147 129.447 519.151 127.38 517.769 124.742C516.387 122.04 515.714 118.834 515.75 115.122C515.791 110.962 516.312 106.743 517.314 102.465C518.38 98.1227 520.019 94.1385 522.231 90.5119C524.443 86.8213 527.256 83.8726 530.669 81.6658C534.084 79.395 538.191 78.283 542.99 78.3298C547.47 78.3735 551.106 79.657 553.897 82.1803C556.689 84.7037 558.064 88.0452 558.024 92.205C557.993 95.4049 557.326 98.1825 556.022 100.538C554.783 102.894 553.004 104.829 550.686 106.342C548.367 107.792 545.637 108.885 542.493 109.622C539.351 110.296 535.891 110.614 532.115 110.577L531.155 110.568C531.086 111.079 531.017 111.623 530.948 112.198C530.879 112.709 530.842 113.189 530.838 113.637C530.812 116.261 531.274 118.121 532.223 119.219C533.237 120.253 534.736 120.779 536.72 120.799C539.024 120.821 541.106 120.585 542.967 120.092C544.893 119.534 547.175 118.532 549.813 117.086L549.701 128.51C546.867 130.338 544.071 131.591 541.312 132.268C538.618 132.882 535.863 133.175 533.047 133.147ZM533.758 99.6488C536.51 99.6756 538.592 99.4399 540.005 98.9416C541.483 98.38 542.514 97.654 543.099 96.7637C543.684 95.8094 543.982 94.7562 543.994 93.6043C544.003 92.6443 543.69 91.8732 543.056 91.291C542.422 90.6448 541.625 90.317 540.666 90.3077C539.77 90.2989 538.902 90.6105 538.064 91.2424C537.226 91.8742 536.416 92.8904 535.634 94.2908C534.917 95.6279 534.228 97.4132 533.566 99.6469L533.758 99.6488ZM558.01 132.431L569.759 79.4549L581.854 79.5728L581.587 87.2506L581.971 87.2543C583.143 85.2177 584.311 83.565 585.476 82.2963C586.64 81.0276 587.929 80.1121 589.343 79.5499C590.756 78.9876 592.359 78.7152 594.151 78.7327C594.791 78.7389 595.431 78.7772 596.07 78.8474C596.709 78.9177 597.507 79.1174 598.464 79.4468L593.5 96.2952C592.799 95.9683 592.065 95.7372 591.298 95.6017C590.532 95.4662 589.7 95.3941 588.804 95.3854C587.46 95.3722 586.274 95.6487 585.244 96.2147C584.214 96.7807 583.279 97.5396 582.438 98.4914C581.66 99.4439 581.009 100.558 580.485 101.833C579.961 103.107 579.531 104.479 579.197 105.948L573.369 132.581L558.01 132.431ZM605.944 155.939C602.808 155.909 599.899 155.56 597.218 154.894C594.599 154.293 592.367 153.503 590.52 152.525L590.652 138.989C591.798 139.641 593.2 140.294 594.857 140.951C596.579 141.607 598.366 142.137 600.218 142.539C602.134 142.942 603.924 143.151 605.588 143.167C608.02 143.191 609.915 142.537 611.272 141.207C612.628 139.94 613.572 138.285 614.104 136.242L614.504 134.614C614.638 134.039 614.772 133.432 614.906 132.794C615.104 132.156 615.303 131.485 615.502 130.783C615.765 130.018 616.029 129.252 616.292 128.487L616.004 128.484C614.902 129.881 613.804 130.991 612.707 131.812C611.612 132.57 610.455 133.102 609.236 133.41C608.081 133.719 606.799 133.867 605.391 133.853C603.279 133.832 601.397 133.238 599.744 132.07C598.156 130.838 596.925 129.098 596.051 126.85C595.178 124.537 594.756 121.781 594.788 118.581C594.814 115.829 595.101 112.696 595.647 109.181C596.258 105.667 597.156 102.155 598.342 98.6465C599.529 95.0739 601.001 91.7921 602.758 88.8011C604.516 85.8101 606.555 83.4299 608.876 81.6604C611.262 79.8276 613.927 78.9256 616.871 78.9543C618.663 78.9717 620.132 79.2421 621.279 79.7653C622.491 80.2251 623.475 81.0028 624.233 82.0982C624.99 83.1937 625.616 84.6078 626.112 86.3407L626.304 86.3426L628.573 80.0284L642.013 80.1595L629.563 136.009C628.493 140.799 626.887 144.655 624.746 147.578C622.605 150.566 619.96 152.716 616.811 154.029C613.662 155.343 610.04 155.979 605.944 155.939ZM613.009 120.583C613.969 120.592 614.837 120.184 615.613 119.36C616.454 118.472 617.201 117.295 617.856 115.83C618.574 114.365 619.197 112.771 619.726 111.048C620.256 109.261 620.689 107.473 621.027 105.684C621.429 103.832 621.702 102.106 621.845 100.508C622.053 98.9098 622.162 97.5668 622.172 96.4788C622.185 95.1989 621.939 94.2044 621.434 93.4955C620.929 92.7225 620.197 92.3313 619.237 92.322C618.149 92.3114 617.151 92.9417 616.242 94.2129C615.334 95.4841 614.55 97.1085 613.891 99.0862C613.232 101 612.668 103.042 612.199 105.214C611.73 107.385 611.358 109.398 611.084 111.251C610.874 113.041 610.765 114.384 610.757 115.28C610.739 117.072 610.918 118.418 611.293 119.318C611.669 120.154 612.241 120.575 613.009 120.583ZM642.451 156.295C640.851 156.28 639.476 156.17 638.326 155.967C637.176 155.828 636.122 155.594 635.165 155.264L638.083 141.564C638.912 141.828 639.678 142.028 640.381 142.163C641.019 142.361 641.594 142.462 642.106 142.467C643.45 142.48 644.51 142.139 645.284 141.442C646.059 140.746 646.773 139.697 647.427 138.295L650.365 132.371L647.61 80.2141L663.161 80.3657L663.054 101.198C663.044 102.158 663.003 103.117 662.93 104.077C662.92 105.037 662.911 106.029 662.901 107.052C662.891 108.012 662.85 108.972 662.776 109.931L663.064 109.934C663.331 108.849 663.63 107.732 663.961 106.583C664.356 105.435 664.719 104.35 665.049 103.329C665.443 102.309 665.739 101.512 665.936 100.938L674.776 80.479L690.903 80.6363L662.681 139.404C661.114 142.589 659.454 145.453 657.701 147.996C655.948 150.603 653.848 152.63 651.401 154.079C649.019 155.591 646.035 156.33 642.451 156.295Z" fill="white"/>
<path d="M168.445 60.1284L197.176 60.4086L197.049 73.4079L166.05 73.1056L168.445 60.1284Z" fill="white"/>
<g opacity="0.7">
<path d="M704.593 91.8583L703.159 89.1942L702.749 89.1902L702.723 91.84L701.013 91.8234L701.082 84.8037L703.951 84.8317C704.505 84.8371 704.974 84.9383 705.359 85.1354C705.75 85.3326 706.041 85.6021 706.231 85.944C706.421 86.2792 706.514 86.6534 706.51 87.0667C706.505 87.5334 706.368 87.9487 706.098 88.3128C705.834 88.6769 705.445 88.9331 704.93 89.0814L706.523 91.8771L704.593 91.8583ZM702.761 87.9802L703.821 87.9906C704.134 87.9936 704.368 87.9192 704.523 87.7674C704.684 87.6156 704.766 87.3998 704.769 87.1198C704.772 86.8531 704.694 86.6423 704.535 86.4875C704.383 86.3326 704.151 86.2537 703.838 86.2506L702.778 86.2403L702.761 87.9802Z" fill="white"/>
<circle cx="703.427" cy="88.3468" r="5" transform="rotate(0.558745 703.427 88.3468)" stroke="white"/>
</g>
<defs>
<filter id="filter0_d_6_2" x="155.475" y="10.6329" width="44.4043" height="24.0822" filterUnits="userSpaceOnUse" color-interpolation-filters="sRGB">
<feFlood flood-opacity="0" result="BackgroundImageFix"/>
<feColorMatrix in="SourceAlpha" type="matrix" values="0 0 0 0 0 0 0 0 0 0 0 0 0 0 0 0 0 0 127 0" result="hardAlpha"/>
<feOffset dx="5" dy="1"/>
<feGaussianBlur stdDeviation="2"/>
<feComposite in2="hardAlpha" operator="out"/>
<feColorMatrix type="matrix" values="0 0 0 0 0 0 0 0 0 0 0 0 0 0 0 0 0 0 0.25 0"/>
<feBlend mode="normal" in2="BackgroundImageFix" result="effect1_dropShadow_6_2"/>
<feBlend mode="normal" in="SourceGraphic" in2="effect1_dropShadow_6_2" result="shape"/>
</filter>
<linearGradient id="paint0_linear_6_2" x1="4.04858" y1="175.031" x2="134.566" y2="71.2986" gradientUnits="userSpaceOnUse">
<stop stop-color="#D93037"/>
<stop offset="1" stop-color="#73191D"/>
</linearGradient>
<linearGradient id="paint1_linear_6_2" x1="84.3936" y1="191.315" x2="151.422" y2="34.9612" gradientUnits="userSpaceOnUse">
<stop stop-color="#D93037"/>
<stop offset="1" stop-color="#73191D"/>
</linearGradient>
<linearGradient id="paint2_linear_6_2" x1="77.8909" y1="37.7443" x2="282.503" y2="129.744" gradientUnits="userSpaceOnUse">
<stop stop-color="#FC5058"/>
<stop offset="1" stop-color="#73191D"/>
</linearGradient>
</defs>
</svg>
