<svg width="708" height="180" viewBox="0 0 708 180" fill="none" xmlns="http://www.w3.org/2000/svg">
<path d="M186 12C182.667 16.6667 175.2 26.4 172 28H245L262 12H186Z" fill="#D93037"/>
<path d="M30 159H0L97 70L109.5 88L30 159Z" fill="url(#paint0_linear_5_30)"/>
<path d="M52 159H27L112 84L159.5 159H110.5L85.5 136L52 159Z" fill="url(#paint1_linear_5_30)"/>
<g filter="url(#filter0_d_5_30)">
<path d="M189.25 12L176 28H154L167.5 12H189.25Z" fill="#C11920" fill-opacity="0.9" shape-rendering="crispEdges"/>
</g>
<path d="M165 12L81.5 83L33 12H81.5L107.5 34L140 12H165Z" fill="#D93037"/>
<path d="M95.5 102.5L81 82.5L164 12H193.5L95.5 102.5Z" fill="url(#paint2_linear_5_30)"/>
<path d="M192.12 127.96C188.472 127.96 185.304 127.288 182.616 125.944C179.992 124.6 177.944 122.68 176.472 120.184C175.064 117.688 174.36 114.712 174.36 111.256C174.36 110.168 174.456 108.888 174.648 107.416C174.84 105.944 175.064 104.504 175.32 103.096L184.824 58.456H200.856L191.352 103.384C191.096 104.344 190.904 105.272 190.776 106.168C190.712 107 190.68 107.768 190.68 108.472C190.68 110.264 190.968 111.576 191.544 112.408C192.184 113.24 193.112 113.656 194.328 113.656C195.608 113.656 196.696 113.336 197.592 112.696C198.488 111.992 199.288 110.904 199.992 109.432C200.696 107.896 201.304 105.848 201.816 103.288L211.416 58.456H227.448L217.368 105.784C216.344 110.584 214.776 114.648 212.664 117.976C210.616 121.24 207.896 123.736 204.504 125.464C201.176 127.128 197.048 127.96 192.12 127.96ZM222.931 127L234.259 73.912H246.547L246.355 80.056H246.643C247.667 78.584 248.755 77.336 249.907 76.312C251.123 75.224 252.403 74.392 253.747 73.816C255.155 73.24 256.595 72.952 258.067 72.952C259.987 72.952 261.811 73.336 263.539 74.104C265.331 74.808 266.771 76.088 267.859 77.944C269.011 79.736 269.587 82.232 269.587 85.432C269.587 86.392 269.523 87.512 269.395 88.792C269.267 90.008 269.043 91.448 268.723 93.112L261.523 127H246.163L252.403 97.432C252.723 96.024 252.979 94.68 253.171 93.4C253.363 92.056 253.459 90.968 253.459 90.136C253.459 89.048 253.267 88.216 252.883 87.64C252.563 87.064 251.955 86.776 251.059 86.776C249.971 86.776 248.979 87.352 248.083 88.504C247.251 89.656 246.515 91.224 245.875 93.208C245.235 95.128 244.659 97.272 244.147 99.64L238.387 127H222.931ZM271.143 127L282.471 73.912H297.735L286.503 127H271.143ZM291.591 68.728C289.223 68.728 287.431 68.248 286.215 67.288C285.063 66.328 284.487 64.856 284.487 62.872C284.487 61.272 284.807 59.704 285.447 58.168C286.151 56.568 287.207 55.224 288.615 54.136C290.087 53.048 291.975 52.504 294.279 52.504C296.519 52.504 298.247 52.984 299.463 53.944C300.743 54.904 301.383 56.376 301.383 58.36C301.383 61.304 300.487 63.768 298.695 65.752C296.903 67.736 294.535 68.728 291.591 68.728ZM312.418 127.96C308.258 127.96 305.346 126.776 303.682 124.408C302.018 122.04 301.186 119.096 301.186 115.576C301.186 114.424 301.25 113.176 301.378 111.832C301.57 110.488 301.858 108.92 302.242 107.128L306.562 86.68H301.762L303.394 78.712L310.69 74.392L316.066 63.256H326.914L324.61 73.912H333.634L330.946 86.68H321.922L317.122 109.336C317.058 109.784 316.962 110.232 316.834 110.68C316.77 111.128 316.738 111.512 316.738 111.832C316.738 112.792 316.93 113.496 317.314 113.944C317.698 114.328 318.37 114.52 319.33 114.52C319.842 114.52 320.642 114.424 321.73 114.232C322.818 113.976 323.97 113.592 325.186 113.08V125.368C323.394 126.328 321.25 127 318.754 127.384C316.322 127.768 314.21 127.96 312.418 127.96ZM350.319 127.96C346.735 127.96 343.631 127.256 341.007 125.848C338.383 124.376 336.367 122.328 334.959 119.704C333.551 117.016 332.847 113.816 332.847 110.104C332.847 105.944 333.327 101.72 334.287 97.432C335.311 93.08 336.911 89.08 339.087 85.432C341.263 81.72 344.047 78.744 347.439 76.504C350.831 74.2 354.927 73.048 359.727 73.048C364.207 73.048 367.855 74.296 370.671 76.792C373.487 79.288 374.895 82.616 374.895 86.776C374.895 89.976 374.255 92.76 372.975 95.128C371.759 97.496 369.999 99.448 367.695 100.984C365.391 102.456 362.671 103.576 359.535 104.344C356.399 105.048 352.943 105.4 349.167 105.4H348.207C348.143 105.912 348.079 106.456 348.015 107.032C347.951 107.544 347.919 108.024 347.919 108.472C347.919 111.096 348.399 112.952 349.359 114.04C350.383 115.064 351.887 115.576 353.871 115.576C356.175 115.576 358.255 115.32 360.111 114.808C362.031 114.232 364.303 113.208 366.927 111.736V123.16C364.111 125.016 361.327 126.296 358.575 127C355.887 127.64 353.135 127.96 350.319 127.96ZM350.703 94.456C353.455 94.456 355.535 94.2 356.943 93.688C358.415 93.112 359.439 92.376 360.015 91.48C360.591 90.52 360.879 89.464 360.879 88.312C360.879 87.352 360.559 86.584 359.919 86.008C359.279 85.368 358.479 85.048 357.519 85.048C356.623 85.048 355.759 85.368 354.927 86.008C354.095 86.648 353.295 87.672 352.527 89.08C351.823 90.424 351.151 92.216 350.511 94.456H350.703ZM388.809 127.96C386.569 127.96 384.617 127.32 382.953 126.04C381.289 124.76 380.009 122.936 379.113 120.568C378.217 118.136 377.769 115.288 377.769 112.024C377.769 109.4 378.025 106.392 378.537 103C379.049 99.608 379.849 96.184 380.937 92.728C382.025 89.208 383.369 85.976 384.969 83.032C386.569 80.024 388.425 77.592 390.537 75.736C392.713 73.88 395.145 72.952 397.833 72.952C399.305 72.952 400.713 73.144 402.057 73.528C403.401 73.912 404.617 74.552 405.705 75.448C406.793 76.344 407.657 77.528 408.297 79H408.585C408.713 77.784 408.841 76.632 408.969 75.544C409.097 74.456 409.225 73.496 409.353 72.664C409.545 71.768 409.705 71.064 409.833 70.552L413.385 54.04H428.745L413.193 127H400.713L400.329 121.528H399.945C398.729 122.872 397.577 124.024 396.489 124.984C395.401 125.944 394.249 126.68 393.033 127.192C391.881 127.704 390.473 127.96 388.809 127.96ZM395.721 115C396.681 115 397.545 114.616 398.313 113.848C399.145 113.016 399.881 111.928 400.521 110.584C401.225 109.176 401.833 107.64 402.345 105.976C402.921 104.248 403.369 102.52 403.689 100.792C404.073 99 404.361 97.304 404.553 95.704C404.745 94.104 404.841 92.696 404.841 91.48C404.841 89.688 404.585 88.376 404.073 87.544C403.625 86.712 402.921 86.296 401.961 86.296C400.873 86.296 399.881 86.936 398.985 88.216C398.089 89.496 397.289 91.16 396.585 93.208C395.945 95.192 395.401 97.272 394.953 99.448C394.505 101.624 394.153 103.64 393.897 105.496C393.705 107.352 393.609 108.728 393.609 109.624C393.609 111.416 393.801 112.76 394.185 113.656C394.569 114.552 395.081 115 395.721 115ZM423.686 127L438.182 58.456H469.286L466.406 72.28H451.334L448.646 84.664H462.662L459.686 98.488H445.766L442.598 112.984H457.766L454.79 127H423.686ZM464.097 127L475.425 73.912H487.713L487.521 80.056H487.809C488.833 78.584 489.921 77.336 491.073 76.312C492.289 75.224 493.569 74.392 494.913 73.816C496.321 73.24 497.761 72.952 499.233 72.952C501.153 72.952 502.977 73.336 504.705 74.104C506.497 74.808 507.937 76.088 509.025 77.944C510.177 79.736 510.753 82.232 510.753 85.432C510.753 86.392 510.689 87.512 510.561 88.792C510.433 90.008 510.209 91.448 509.889 93.112L502.689 127H487.329L493.569 97.432C493.889 96.024 494.145 94.68 494.337 93.4C494.529 92.056 494.625 90.968 494.625 90.136C494.625 89.048 494.433 88.216 494.049 87.64C493.729 87.064 493.121 86.776 492.225 86.776C491.137 86.776 490.145 87.352 489.249 88.504C488.417 89.656 487.681 91.224 487.041 93.208C486.401 95.128 485.825 97.272 485.313 99.64L479.553 127H464.097ZM532.565 127.96C528.981 127.96 525.877 127.256 523.253 125.848C520.629 124.376 518.613 122.328 517.205 119.704C515.797 117.016 515.093 113.816 515.093 110.104C515.093 105.944 515.573 101.72 516.533 97.432C517.557 93.08 519.157 89.08 521.333 85.432C523.509 81.72 526.293 78.744 529.685 76.504C533.077 74.2 537.173 73.048 541.973 73.048C546.453 73.048 550.101 74.296 552.917 76.792C555.733 79.288 557.141 82.616 557.141 86.776C557.141 89.976 556.501 92.76 555.221 95.128C554.005 97.496 552.245 99.448 549.941 100.984C547.637 102.456 544.917 103.576 541.781 104.344C538.645 105.048 535.189 105.4 531.413 105.4H530.453C530.389 105.912 530.325 106.456 530.261 107.032C530.197 107.544 530.165 108.024 530.165 108.472C530.165 111.096 530.645 112.952 531.605 114.04C532.629 115.064 534.133 115.576 536.117 115.576C538.421 115.576 540.501 115.32 542.357 114.808C544.277 114.232 546.549 113.208 549.173 111.736V123.16C546.357 125.016 543.573 126.296 540.821 127C538.133 127.64 535.381 127.96 532.565 127.96ZM532.949 94.456C535.701 94.456 537.781 94.2 539.189 93.688C540.661 93.112 541.685 92.376 542.261 91.48C542.837 90.52 543.125 89.464 543.125 88.312C543.125 87.352 542.805 86.584 542.165 86.008C541.525 85.368 540.725 85.048 539.765 85.048C538.869 85.048 538.005 85.368 537.173 86.008C536.341 86.648 535.541 87.672 534.773 89.08C534.069 90.424 533.397 92.216 532.757 94.456H532.949ZM557.519 127L568.751 73.912H580.847L580.655 81.592H581.039C582.191 79.544 583.343 77.88 584.495 76.6C585.647 75.32 586.927 74.392 588.335 73.816C589.743 73.24 591.343 72.952 593.135 72.952C593.775 72.952 594.415 72.984 595.055 73.048C595.695 73.112 596.495 73.304 597.455 73.624L592.655 90.52C591.951 90.2 591.215 89.976 590.447 89.848C589.679 89.72 588.847 89.656 587.951 89.656C586.607 89.656 585.423 89.944 584.399 90.52C583.375 91.096 582.447 91.864 581.615 92.824C580.847 93.784 580.207 94.904 579.695 96.184C579.183 97.464 578.767 98.84 578.447 100.312L572.879 127H557.519ZM605.681 150.04C602.545 150.04 599.633 149.72 596.945 149.08C594.321 148.504 592.081 147.736 590.225 146.776V133.24C591.377 133.88 592.785 134.52 594.449 135.16C596.177 135.8 597.969 136.312 599.825 136.696C601.745 137.08 603.537 137.272 605.201 137.272C607.633 137.272 609.521 136.6 610.865 135.256C612.209 133.976 613.137 132.312 613.649 130.264L614.033 128.632C614.161 128.056 614.289 127.448 614.417 126.808C614.609 126.168 614.801 125.496 614.993 124.792C615.249 124.024 615.505 123.256 615.761 122.488H615.473C614.385 123.896 613.297 125.016 612.209 125.848C611.121 126.616 609.969 127.16 608.753 127.48C607.601 127.8 606.321 127.96 604.913 127.96C602.801 127.96 600.913 127.384 599.249 126.232C597.649 125.016 596.401 123.288 595.505 121.048C594.609 118.744 594.161 115.992 594.161 112.792C594.161 110.04 594.417 106.904 594.929 103.384C595.505 99.864 596.369 96.344 597.521 92.824C598.673 89.24 600.113 85.944 601.841 82.936C603.569 79.928 605.585 77.528 607.889 75.736C610.257 73.88 612.913 72.952 615.857 72.952C617.649 72.952 619.121 73.208 620.273 73.72C621.489 74.168 622.481 74.936 623.249 76.024C624.017 77.112 624.657 78.52 625.169 80.248H625.361L627.569 73.912H641.009L629.105 129.88C628.081 134.68 626.513 138.552 624.401 141.496C622.289 144.504 619.665 146.68 616.529 148.024C613.393 149.368 609.777 150.04 605.681 150.04ZM612.401 114.616C613.361 114.616 614.225 114.2 614.993 113.368C615.825 112.472 616.561 111.288 617.201 109.816C617.905 108.344 618.513 106.744 619.025 105.016C619.537 103.224 619.953 101.432 620.273 99.64C620.657 97.784 620.913 96.056 621.041 94.456C621.233 92.856 621.329 91.512 621.329 90.424C621.329 89.144 621.073 88.152 620.561 87.448C620.049 86.68 619.313 86.296 618.353 86.296C617.265 86.296 616.273 86.936 615.377 88.216C614.481 89.496 613.713 91.128 613.073 93.112C612.433 95.032 611.889 97.08 611.441 99.256C610.993 101.432 610.641 103.448 610.385 105.304C610.193 107.096 610.097 108.44 610.097 109.336C610.097 111.128 610.289 112.472 610.673 113.368C611.057 114.2 611.633 114.616 612.401 114.616ZM642.19 150.04C640.59 150.04 639.214 149.944 638.062 149.752C636.91 149.624 635.854 149.4 634.894 149.08L637.678 135.352C638.51 135.608 639.278 135.8 639.982 135.928C640.622 136.12 641.198 136.216 641.71 136.216C643.054 136.216 644.11 135.864 644.878 135.16C645.646 134.456 646.35 133.4 646.99 131.992L649.87 126.04L646.606 73.912H662.158L662.254 94.744C662.254 95.704 662.222 96.664 662.158 97.624C662.158 98.584 662.158 99.576 662.158 100.6C662.158 101.56 662.126 102.52 662.062 103.48H662.35C662.606 102.392 662.894 101.272 663.214 100.12C663.598 98.968 663.95 97.88 664.27 96.856C664.654 95.832 664.942 95.032 665.134 94.456L673.774 73.912H689.902L662.254 132.952C660.718 136.152 659.086 139.032 657.358 141.592C655.63 144.216 653.55 146.264 651.118 147.736C648.75 149.272 645.774 150.04 642.19 150.04Z" fill="#394051"/>
<path d="M167.268 58.5H196V71.5H165L167.268 58.5Z" fill="#394051"/>
<g opacity="0.7">
<path d="M703.7 85L702.24 82.35H701.83V85H700.12V77.98H702.99C703.543 77.98 704.013 78.0767 704.4 78.27C704.793 78.4633 705.087 78.73 705.28 79.07C705.473 79.4033 705.57 79.7767 705.57 80.19C705.57 80.6567 705.437 81.0733 705.17 81.44C704.91 81.8067 704.523 82.0667 704.01 82.22L705.63 85H703.7ZM701.83 81.14H702.89C703.203 81.14 703.437 81.0633 703.59 80.91C703.75 80.7567 703.83 80.54 703.83 80.26C703.83 79.9933 703.75 79.7833 703.59 79.63C703.437 79.4767 703.203 79.4 702.89 79.4H701.83V81.14Z" fill="#394051"/>
<circle cx="702.5" cy="81.5" r="5" stroke="#394051"/>
</g>
<defs>
<filter id="filter0_d_5_30" x="154" y="9" width="44.25" height="24" filterUnits="userSpaceOnUse" color-interpolation-filters="sRGB">
<feFlood flood-opacity="0" result="BackgroundImageFix"/>
<feColorMatrix in="SourceAlpha" type="matrix" values="0 0 0 0 0 0 0 0 0 0 0 0 0 0 0 0 0 0 127 0" result="hardAlpha"/>
<feOffset dx="5" dy="1"/>
<feGaussianBlur stdDeviation="2"/>
<feComposite in2="hardAlpha" operator="out"/>
<feColorMatrix type="matrix" values="0 0 0 0 0 0 0 0 0 0 0 0 0 0 0 0 0 0 0.25 0"/>
<feBlend mode="normal" in2="BackgroundImageFix" result="effect1_dropShadow_5_30"/>
<feBlend mode="normal" in="SourceGraphic" in2="effect1_dropShadow_5_30" result="shape"/>
</filter>
<linearGradient id="paint0_linear_5_30" x1="4.00001" y1="175" x2="133.5" y2="70" gradientUnits="userSpaceOnUse">
<stop stop-color="#D93037"/>
<stop offset="1" stop-color="#73191D"/>
</linearGradient>
<linearGradient id="paint1_linear_5_30" x1="84.5" y1="190.5" x2="150" y2="33.5" gradientUnits="userSpaceOnUse">
<stop stop-color="#D93037"/>
<stop offset="1" stop-color="#73191D"/>
</linearGradient>
<linearGradient id="paint2_linear_5_30" x1="76.5" y1="37" x2="282" y2="127" gradientUnits="userSpaceOnUse">
<stop stop-color="#FC5058"/>
<stop offset="1" stop-color="#73191D"/>
</linearGradient>
</defs>
</svg>
